<?xml version="1.0" encoding="UTF-8"?>
<svg version="1.1" xmlns="http://www.w3.org/2000/svg" width="213" height="176">
<path d="M0 0 C70.29 0 140.58 0 213 0 C213 58.08 213 116.16 213 176 C142.71 176 72.42 176 0 176 C0 117.92 0 59.84 0 0 Z " fill="#FFFEFE" transform="translate(0,0)"/>
<path d="M0 0 C1.31581055 -0.01740234 1.31581055 -0.01740234 2.65820312 -0.03515625 C13.62998423 0.01335568 22.27553506 3.78493282 31.5625 9.375 C32.635 9.99375 33.7075 10.6125 34.8125 11.25 C36.5625 13.375 36.5625 13.375 36.5 17.125 C36.22166826 18.54877391 35.90719153 19.96581994 35.5625 21.375 C35.3871875 22.13296875 35.211875 22.8909375 35.03125 23.671875 C34.57107479 25.58024866 34.07041754 27.47877453 33.5625 29.375 C32.5725 28.3540625 32.5725 28.3540625 31.5625 27.3125 C30.56590751 26.32986539 29.56546886 25.35112541 28.5625 24.375 C27.98113281 23.7975 27.39976562 23.22 26.80078125 22.625 C18.74952409 15.0473462 9.42111046 12.00852823 -1.5078125 12.16796875 C-11.24348363 12.85595618 -20.52611537 17.2907509 -27.32421875 24.328125 C-35.593562 34.90955162 -37.35864367 45.15000874 -36.4375 58.375 C-34.32736 69.2180688 -28.70367905 77.84703185 -19.57421875 84.08984375 C-9.73177769 90.00970318 0.52254369 91.05662453 11.71875 88.71484375 C20.55114404 85.8492777 27.29140913 80.05067738 33.5625 73.375 C34.071283 74.93466218 34.56913469 76.49789241 35.0625 78.0625 C35.3409375 78.93261719 35.619375 79.80273438 35.90625 80.69921875 C36.58738812 83.47647836 36.95720888 85.53773968 36.5625 88.375 C30.18532121 95.80716886 18.18151133 101.2350847 8.5625 102.375 C-7.78444085 103.52994691 -21.07105891 99.8713307 -34.125 89.625 C-43.19256815 81.38951457 -49.91903447 68.79794002 -50.67578125 56.50390625 C-51.08378735 39.86347826 -47.28457698 26.61879336 -35.75 14.125 C-25.65233269 4.59483725 -13.72178454 -0.18068187 0 0 Z " fill="#FF453A" transform="translate(155.4375,31.625)"/>
<path d="M0 0 C0.763125 0.5775 1.52625 1.155 2.3125 1.75 C1.8672115 7.02315333 1.22876837 11.76770224 -0.6875 16.75 C-2.6875 15.375 -2.6875 15.375 -4.6875 13.75 C-4.6875 13.09 -4.6875 12.43 -4.6875 11.75 C-5.244375 11.481875 -5.80125 11.21375 -6.375 10.9375 C-8.6875 9.75 -8.6875 9.75 -11.1875 8.1875 C-15.7531638 5.56224331 -20.45252114 5.01367349 -25.6875 5.75 C-29.4951546 7.76159111 -32.73584016 9.84668033 -34.6875 13.75 C-35.21535027 19.29242783 -34.95767071 22.11725816 -31.6875 26.75 C-31.6875 27.41 -31.6875 28.07 -31.6875 28.75 C-30.73617187 29.09998047 -30.73617187 29.09998047 -29.765625 29.45703125 C-16.25613567 35.13170253 -0.39266652 41.9804616 6.3125 55.75 C9.15253365 64.27010094 7.66604934 73.11379101 3.921875 81.0859375 C1.37083603 85.30877386 -1.58510731 88.05757043 -5.6875 90.75 C-6.32042969 91.18183594 -6.95335937 91.61367187 -7.60546875 92.05859375 C-15.46496301 96.45200543 -26.15129044 96.01663921 -34.7265625 94.0546875 C-37.21682604 93.13722198 -39.39751176 92.0875519 -41.6875 90.75 C-42.47253906 90.30269531 -43.25757813 89.85539062 -44.06640625 89.39453125 C-46.23403092 87.98840255 -47.97625817 86.68444729 -49.6875 84.75 C-50.70263519 79.36978352 -49.02263871 74.00710869 -47.6875 68.75 C-47.0275 68.75 -46.3675 68.75 -45.6875 68.75 C-44.80585141 69.92354576 -43.98240573 71.1410475 -43.1875 72.375 C-38.92867626 78.15630179 -33.8111414 82.12158613 -26.5859375 83.22265625 C-19.60155623 83.42196242 -14.82204296 82.44918977 -9.4375 77.8125 C-6.04560199 73.81490592 -5.33514918 71.06364367 -5.50390625 65.703125 C-5.9323308 61.14541699 -7.70840049 58.32242825 -10.94604492 55.15258789 C-14.73461992 52.10122614 -19.19775821 50.04212896 -23.5 47.8125 C-42.81519048 37.75926117 -42.81519048 37.75926117 -46.83203125 28.65625 C-49.07818428 21.02548353 -49.06729534 13.3301232 -45.25 6.25 C-34.55379414 -9.12421551 -14.83386647 -9.72712555 0 0 Z " fill="#FF453A" transform="translate(84.6875,38.25)"/>
</svg>
